<?xml version="1.0" standalone="no"?>
<svg xmlns:xlink="http://www.w3.org/1999/xlink" id="wave" style="transform:rotate(0deg); transition: 0.3s" viewBox="0 0 1440 490" version="1.1" xmlns="http://www.w3.org/2000/svg"><defs><linearGradient id="sw-gradient-0" x1="0" x2="0" y1="1" y2="0"><stop stop-color="rgba(17.359, 57.721, 100.605, 1)" offset="0%"/><stop stop-color="rgba(24, 136, 255, 1)" offset="100%"/></linearGradient></defs><path style="transform:translate(0, 0px); opacity:1" fill="url(#sw-gradient-0)" d="M0,245L80,212.3C160,180,320,114,480,73.5C640,33,800,16,960,73.5C1120,131,1280,261,1440,302.2C1600,343,1760,294,1920,253.2C2080,212,2240,180,2400,187.8C2560,196,2720,245,2880,228.7C3040,212,3200,131,3360,106.2C3520,82,3680,114,3840,163.3C4000,212,4160,278,4320,302.2C4480,327,4640,310,4800,253.2C4960,196,5120,98,5280,57.2C5440,16,5600,33,5760,98C5920,163,6080,278,6240,302.2C6400,327,6560,261,6720,236.8C6880,212,7040,229,7200,261.3C7360,294,7520,343,7680,310.3C7840,278,8000,163,8160,138.8C8320,114,8480,180,8640,196C8800,212,8960,180,9120,138.8C9280,98,9440,49,9600,73.5C9760,98,9920,196,10080,261.3C10240,327,10400,359,10560,334.8C10720,310,10880,229,11040,228.7C11200,229,11360,310,11440,351.2L11520,392L11520,490L11440,490C11360,490,11200,490,11040,490C10880,490,10720,490,10560,490C10400,490,10240,490,10080,490C9920,490,9760,490,9600,490C9440,490,9280,490,9120,490C8960,490,8800,490,8640,490C8480,490,8320,490,8160,490C8000,490,7840,490,7680,490C7520,490,7360,490,7200,490C7040,490,6880,490,6720,490C6560,490,6400,490,6240,490C6080,490,5920,490,5760,490C5600,490,5440,490,5280,490C5120,490,4960,490,4800,490C4640,490,4480,490,4320,490C4160,490,4000,490,3840,490C3680,490,3520,490,3360,490C3200,490,3040,490,2880,490C2720,490,2560,490,2400,490C2240,490,2080,490,1920,490C1760,490,1600,490,1440,490C1280,490,1120,490,960,490C800,490,640,490,480,490C320,490,160,490,80,490L0,490Z"/></svg>