<?xml version="1.0" standalone="no"?>
<svg xmlns:xlink="http://www.w3.org/1999/xlink" id="wave" style="transform:rotate(0deg); transition: 0.3s" viewBox="0 0 1440 490" version="1.1" xmlns="http://www.w3.org/2000/svg"><defs><linearGradient id="sw-gradient-0" x1="0" x2="0" y1="1" y2="0"><stop stop-color="rgba(17.359, 57.721, 100.605, 1)" offset="0%"/><stop stop-color="rgba(24, 136, 255, 1)" offset="100%"/></linearGradient></defs><path style="transform:translate(0, 0px); opacity:1" fill="url(#sw-gradient-0)" d="M0,245L80,269.5C160,294,320,343,480,302.2C640,261,800,131,960,73.5C1120,16,1280,33,1440,57.2C1600,82,1760,114,1920,114.3C2080,114,2240,82,2400,122.5C2560,163,2720,278,2880,277.7C3040,278,3200,163,3360,106.2C3520,49,3680,49,3840,49C4000,49,4160,49,4320,106.2C4480,163,4640,278,4800,326.7C4960,376,5120,359,5280,302.2C5440,245,5600,147,5760,163.3C5920,180,6080,310,6240,375.7C6400,441,6560,441,6720,392C6880,343,7040,245,7200,212.3C7360,180,7520,212,7680,236.8C7840,261,8000,278,8160,253.2C8320,229,8480,163,8640,138.8C8800,114,8960,131,9120,130.7C9280,131,9440,114,9600,89.8C9760,65,9920,33,10080,57.2C10240,82,10400,163,10560,196C10720,229,10880,212,11040,245C11200,278,11360,359,11440,400.2L11520,441L11520,490L11440,490C11360,490,11200,490,11040,490C10880,490,10720,490,10560,490C10400,490,10240,490,10080,490C9920,490,9760,490,9600,490C9440,490,9280,490,9120,490C8960,490,8800,490,8640,490C8480,490,8320,490,8160,490C8000,490,7840,490,7680,490C7520,490,7360,490,7200,490C7040,490,6880,490,6720,490C6560,490,6400,490,6240,490C6080,490,5920,490,5760,490C5600,490,5440,490,5280,490C5120,490,4960,490,4800,490C4640,490,4480,490,4320,490C4160,490,4000,490,3840,490C3680,490,3520,490,3360,490C3200,490,3040,490,2880,490C2720,490,2560,490,2400,490C2240,490,2080,490,1920,490C1760,490,1600,490,1440,490C1280,490,1120,490,960,490C800,490,640,490,480,490C320,490,160,490,80,490L0,490Z"/></svg>